<svg width="834" height="554" viewBox="0 0 834 554" fill="none" xmlns="http://www.w3.org/2000/svg">
<g clip-path="url(#clip0_6_108)">
<rect width="834" height="554" fill="url(#paint0_linear_6_108)"/>
<path d="M512.401 184.87C532.283 184.87 548.401 168.752 548.401 148.87C548.401 128.988 532.283 112.87 512.401 112.87C492.519 112.87 476.401 128.988 476.401 148.87C476.401 168.752 492.519 184.87 512.401 184.87Z" fill="#F2F2F2"/>
<path d="M298.401 112.87C314.97 112.87 328.401 99.4386 328.401 82.8701C328.401 66.3015 314.97 52.8701 298.401 52.8701C281.833 52.8701 268.401 66.3015 268.401 82.8701C268.401 99.4386 281.833 112.87 298.401 112.87Z" fill="#F2F2F2"/>
<path d="M200.401 396.87C216.97 396.87 230.401 383.439 230.401 366.87C230.401 350.302 216.97 336.87 200.401 336.87C183.833 336.87 170.401 350.302 170.401 366.87C170.401 383.439 183.833 396.87 200.401 396.87Z" fill="#F2F2F2"/>
<path d="M169.909 412.87C178.599 423.17 187.999 497.426 198.029 506.406L668.609 507.406C678.639 498.426 688.039 424.17 696.729 413.87L169.909 412.87H169.909Z" fill="#E6E6E6"/>
<path d="M316.599 325.646V428.206H388.449V325.646C388.451 324.131 387.466 322.793 386.019 322.346C385.687 322.236 385.339 322.182 384.989 322.186H320.069C318.156 322.182 316.603 323.73 316.599 325.642V325.646H316.599ZM344.639 360.886C344.678 356.65 348.144 353.247 352.38 353.287C356.56 353.325 359.94 356.705 359.979 360.886V372.786C359.959 377.022 356.508 380.439 352.272 380.419C348.065 380.399 344.659 376.993 344.639 372.786V360.886Z" fill="#3F3D56"/>
<path d="M203.569 171.126V358.386C203.573 363.355 207.6 367.382 212.569 367.386H490.069C495.038 367.382 499.065 363.355 499.069 358.386V171.126C499.057 166.162 495.033 162.142 490.069 162.136H212.569C207.605 162.142 203.581 166.162 203.569 171.126Z" fill="#3F3D56"/>
<path d="M210.079 173.456V356.076C210.083 358.73 212.234 360.881 214.889 360.886H487.759C490.413 360.881 492.564 358.73 492.569 356.076V173.456C492.569 170.798 490.417 168.641 487.759 168.636H214.889C212.231 168.641 210.079 170.798 210.079 173.456Z" fill="#00B0FF"/>
<path d="M265.719 439.086C266.282 439.791 267.136 440.2 268.039 440.196H430.379C432.029 440.194 433.364 438.855 433.362 437.205C433.362 437 433.341 436.796 433.299 436.596L430.779 424.626C430.567 423.634 429.867 422.817 428.919 422.456C428.581 422.323 428.222 422.255 427.859 422.256H270.549C270.186 422.255 269.827 422.323 269.489 422.456C268.541 422.817 267.841 423.634 267.629 424.626L265.109 436.596C264.927 437.475 265.151 438.39 265.719 439.086H265.719Z" fill="#3F3D56"/>
<path d="M223.662 193.792H478.986C479.546 193.78 479.991 193.316 479.979 192.755C479.967 192.211 479.529 191.774 478.986 191.762H223.662C223.101 191.774 222.657 192.238 222.669 192.799C222.681 193.343 223.119 193.781 223.662 193.792Z" fill="#3F3D56"/>
<path d="M795.943 392.196C795.923 392.146 795.913 392.106 795.893 392.067C795.507 391.026 795.056 390.011 794.543 389.027C791.633 383.557 794.713 375.157 791.433 365.877C786.133 350.837 779.673 341.967 770.203 334.017C769.923 333.777 769.643 333.547 769.353 333.307L769.343 333.297C763.023 328.107 755.403 323.257 745.943 317.217C743.973 315.957 737.163 319.597 737.323 313.357C737.503 306.427 737.693 299.247 734.293 294.767L734.073 294.477L733.723 294.387C722.066 292.081 710.176 291.164 698.303 291.657H698.293C693.252 291.844 688.246 292.578 683.363 293.847C683.003 293.947 682.643 294.047 682.293 294.167C682.023 294.237 681.753 294.327 681.483 294.417L681.263 294.497L681.093 294.657C677.803 297.947 677.043 303.847 676.683 309.997V310.007C676.613 311.127 676.553 312.247 676.503 313.366C676.223 319.347 661.793 324.176 656.293 326.886C645.963 331.986 647.521 343.87 647.401 343.87C647.401 343.87 630.033 379.526 629.823 415.636C629.813 417.646 629.8 419.667 629.783 421.696C629.663 438.516 629.343 455.626 628.083 471.216C627.533 477.917 626.823 484.326 625.873 490.316C621.253 519.486 600.323 495.266 590.313 514.676C590.642 516.585 591.196 518.448 591.963 520.226C593.113 520.906 594.293 521.566 595.463 522.226C600.653 525.116 605.94 527.813 611.323 530.316C611.623 530.456 611.923 530.597 612.223 530.726C622.097 535.295 632.275 539.178 642.683 542.346C644.713 542.966 646.743 543.556 648.793 544.116C666.927 549.122 685.599 551.919 704.403 552.446C704.479 552.438 704.556 552.435 704.633 552.436C726.872 551.822 748.965 548.637 770.473 542.946C770.773 542.867 771.073 542.787 771.373 542.706C772.783 542.326 774.183 541.946 775.583 541.547C787.961 538.024 800.088 533.675 811.883 528.526C811.895 528.966 811.939 529.403 812.013 529.836C812.023 529.978 812.043 530.118 812.073 530.256C812.093 530.096 812.113 529.937 812.123 529.776C812.183 529.307 812.233 528.826 812.283 528.346C818.403 468.667 805.693 417.997 795.943 392.197V392.196Z" fill="#CCCCCC"/>
<path d="M707.419 286.474C739.491 286.474 765.49 260.475 765.49 228.403C765.49 196.331 739.491 170.332 707.419 170.332C675.347 170.332 649.348 196.331 649.348 228.403C649.348 260.475 675.347 286.474 707.419 286.474Z" fill="#FFB6B6"/>
<path d="M711.718 287.52C720.571 285.938 729.274 283.603 737.73 280.539C746.032 277.097 762.612 259.157 766.342 249.579C769.113 242.462 769.747 232.068 769.791 224.602C769.977 204.61 761.678 185.475 746.954 171.95C744.104 169.114 740.54 167.102 736.641 166.125C736.3 166.063 735.952 166.017 735.604 165.987C730.13 165.631 724.886 163.647 720.547 160.29C719.699 159.605 718.803 158.982 717.866 158.426C713.193 155.822 707.971 154.36 702.626 154.16C693.943 153.559 682.427 158.078 668.4 167.597C661.353 172.38 652.714 172.829 645.973 172.686C645.207 172.687 644.5 173.094 644.114 173.756C641.866 176.876 638.52 179.028 634.749 179.782C632.457 180.333 630.656 184.007 628.537 188.752C628.057 189.829 627.496 191.086 627.067 191.867L626.74 190.59L625.713 192.286C620.431 201.011 623.222 212.367 631.947 217.65C634.292 219.07 636.924 219.95 639.651 220.226C642.097 220.391 644.553 220.307 646.982 219.974C648.463 219.821 649.994 219.663 651.486 219.633C661.279 219.727 670.304 224.959 675.251 233.412C677.307 236.868 681.776 238.003 685.232 235.947C685.775 235.624 686.273 235.232 686.715 234.781C689.302 231.811 693.179 230.296 697.094 230.725C698.836 231.293 700.329 232.442 701.325 233.98C702.501 235.681 704.157 236.993 706.082 237.748C712.529 239.627 715.54 252.929 715.609 264.494C715.675 275.641 713.181 284.2 709.544 285.308C706.744 286.16 706.456 286.427 706.348 286.972L706.251 287.461L706.655 287.821C708.344 288.086 710.071 287.983 711.718 287.52H711.718Z" fill="#2F2E41"/>
<path d="M506.191 467.056C517.31 467.056 526.323 464.179 526.323 460.631C526.323 457.082 517.31 454.206 506.191 454.206C495.072 454.206 486.059 457.082 486.059 460.631C486.059 464.179 495.072 467.056 506.191 467.056Z" fill="#3F3D56"/>
<path d="M506.191 462.773C517.31 462.773 526.323 459.896 526.323 456.347C526.323 452.799 517.31 449.922 506.191 449.922C495.072 449.922 486.059 452.799 486.059 456.347C486.059 459.896 495.072 462.773 506.191 462.773Z" fill="#3F3D56"/>
<path d="M502.651 460.653L505.651 460.608L504.824 404.59C504.579 385.989 514.241 368.66 530.193 359.09L587.452 324.864L585.913 322.288L528.654 356.516C511.783 366.636 501.565 384.963 501.824 404.635L502.651 460.653V460.653Z" fill="#3F3D56"/>
<path d="M585.966 350.117H585.966C581.944 350.117 578.684 346.857 578.684 342.835V297.431C578.684 293.409 581.944 290.149 585.966 290.149H585.966C589.987 290.149 593.248 293.409 593.248 297.431V342.835C593.248 346.857 589.987 350.117 585.966 350.117Z" fill="#00B0FF"/>
<path d="M490.737 384.553C493.26 393.782 502.787 399.218 512.016 396.695C513 396.426 513.959 396.071 514.88 395.633L558.063 439.512L564.745 408.226L522.713 371.354C518.021 362.956 507.409 359.953 499.012 364.645C491.985 368.572 488.564 376.802 490.737 384.553H490.737V384.553Z" fill="#FFB6B6"/>
<path d="M716.301 338.735L716.027 338.582L684.54 327.754C676.454 324.973 667.563 325.799 660.127 330.022C658.42 330.987 656.815 332.122 655.336 333.409L655.326 333.411C650.392 337.673 646.992 343.436 645.647 349.815L629.109 428.333L595.857 410.413L582.307 407.177L569.973 394.799L539.172 382.258L537.463 384.299L521.965 402.823L520.747 404.279L554.872 453.649L570.169 455.314L574.454 462.937L574.756 463.075L587.296 468.727L640.778 492.823L666.677 473.002L670.729 469.891C704.235 438.848 719.898 413.876 726.437 394.857C729.898 384.81 730.81 376.439 730.467 369.69C729.402 348.833 716.833 339.134 716.301 338.735H716.301Z" fill="#CCCCCC"/>
<path d="M745.901 357.87H730.901C687.547 357.87 652.401 393.016 652.401 436.37V436.37C638.408 453.674 639.265 475.403 652.401 500.79L609.406 482.865C603.283 480.328 596.263 483.235 593.726 489.358C591.197 495.462 594.078 502.462 600.17 505.017L652.401 526.792V530.846C652.401 543.562 662.709 553.87 675.425 553.87H801.377C814.093 553.87 824.401 543.562 824.401 530.846C833.739 496.589 839.583 463.366 824.401 436.37C824.401 393.016 789.255 357.87 745.901 357.87V357.87Z" fill="#3F3D56"/>
<path d="M386.401 291.87C388.61 291.87 390.401 290.079 390.401 287.87C390.401 285.661 388.61 283.87 386.401 283.87C384.192 283.87 382.401 285.661 382.401 287.87C382.401 290.079 384.192 291.87 386.401 291.87Z" fill="#F2F2F2"/>
<path d="M400.401 291.87C402.61 291.87 404.401 290.079 404.401 287.87C404.401 285.661 402.61 283.87 400.401 283.87C398.192 283.87 396.401 285.661 396.401 287.87C396.401 290.079 398.192 291.87 400.401 291.87Z" fill="#F2F2F2"/>
<path d="M414.401 291.87C416.61 291.87 418.401 290.079 418.401 287.87C418.401 285.661 416.61 283.87 414.401 283.87C412.192 283.87 410.401 285.661 410.401 287.87C410.401 290.079 412.192 291.87 414.401 291.87Z" fill="#F2F2F2"/>
<path d="M285.661 245.905L315.519 246.35C316.347 246.322 316.995 245.627 316.967 244.798C316.939 244.01 316.307 243.378 315.519 243.35L285.661 242.905C284.833 242.934 284.184 243.629 284.213 244.457C284.241 245.245 284.873 245.878 285.661 245.905Z" fill="white"/>
<path d="M321.633 277.301C325.166 280.028 330.846 277.642 331.832 273.43C332.981 268.521 328.693 263.901 323.828 264.007C318.417 264.126 314.592 268.677 314.006 273.799C313.548 278.523 315.474 283.164 319.142 286.174C323.044 289.589 328.389 290.837 333.399 289.505C335.247 288.96 334.46 286.064 332.602 286.612C326.016 288.31 319.26 284.526 317.268 278.023C316.326 274.485 317.215 270.066 320.513 268.041C323.478 266.222 327.674 266.882 328.804 270.528C329.475 272.448 328.462 274.548 326.542 275.219C325.396 275.62 324.126 275.43 323.147 274.711C322.431 274.298 321.516 274.538 321.095 275.249C320.697 275.967 320.934 276.87 321.633 277.301V277.301V277.301Z" fill="white"/>
<path d="M352.241 263.763C349.23 267.135 346.533 270.775 344.184 274.638L340.678 265.372C340.002 263.583 337.1 264.359 337.785 266.17C339.275 270.108 340.765 274.047 342.255 277.985C340.54 281.16 339.056 284.455 337.817 287.845C337.153 289.661 340.051 290.444 340.709 288.642C341.574 286.29 342.565 283.987 343.676 281.742C345.041 285.35 346.406 288.958 347.771 292.566C348.448 294.355 351.349 293.579 350.664 291.768C348.956 287.254 347.248 282.739 345.54 278.224C348.029 273.806 350.987 269.668 354.363 265.884C355.647 264.449 353.532 262.32 352.241 263.763V263.763Z" fill="white"/>
<path d="M298.969 244.44L301.067 289.406C301.156 291.329 304.157 291.34 304.067 289.406L301.969 244.44C301.879 242.517 298.879 242.506 298.969 244.44V244.44V244.44Z" fill="white"/>
<path d="M372.968 267.87H365.412C365.393 266.352 365.373 264.834 365.342 263.318C365.303 261.39 362.303 261.384 362.342 263.318C362.373 264.835 362.403 266.353 362.434 267.87H355.96C355.132 267.899 354.483 268.594 354.512 269.422C354.539 270.21 355.172 270.843 355.96 270.87H362.494C362.507 271.508 362.52 272.146 362.533 272.783C362.49 275.735 362.617 278.686 362.912 281.623C363.552 286.339 366.749 291.697 372.209 291.234C374.119 291.073 374.136 288.071 372.209 288.234C367.281 288.652 365.866 282.862 365.681 279.07C365.548 276.342 365.49 273.606 365.451 270.87H372.968C373.797 270.841 374.445 270.146 374.416 269.318C374.388 268.53 373.756 267.898 372.968 267.87V267.87Z" fill="#F2F2F2"/>
<path d="M78.6714 407.591C77.6994 407.595 76.7298 407.686 75.7741 407.864L59.8726 307.198L75.803 210.287C77.9899 196.986 68.9796 184.43 55.678 182.243C43.674 180.269 32.0494 187.436 28.421 199.048V199.048C22.4491 218.158 19.4939 238.082 19.6619 258.102L20.2175 324.193L62.6098 425.695C63.672 434.568 71.7262 440.9 80.5993 439.838C89.4725 438.776 95.8046 430.721 94.7424 421.848C93.7684 413.712 86.8658 407.588 78.6714 407.591V407.591V407.591Z" fill="#FFB8B8"/>
<path d="M49.5489 175.81C28.3611 175.845 11.194 193.012 11.1589 214.2L18.9589 293L19.6589 300.06L20.0189 300.08L47.4089 301.44H47.4189L60.7089 302.1L62.9889 302.21L65.5989 293L87.9389 214.2C87.9162 193.007 70.7418 175.833 49.5489 175.81V175.81Z" fill="#E6E6E6"/>
<path d="M50.7289 554L38.1289 515.34C38.1289 515.34 15.0289 491.85 44.6589 429.49C45.3089 428.11 45.9889 426.72 46.6989 425.3C47.9389 422.81 49.2656 420.256 50.6789 417.64C52.8189 413.84 54.9889 409.91 57.4389 405.85L59.6789 406.25L61.7989 406.62L69.0489 407.9H69.0589L174.049 426.4C174.049 426.4 172.119 435.02 171.079 444.27C170.249 451.86 169.979 459.54 171.939 462.79C176.179 470.05 170.449 489.67 170.449 489.67C170.449 489.67 170.769 491.57 171.309 494.93V494.94C171.839 498.21 172.579 502.85 173.419 508.47C173.459 508.85 173.509 509.23 173.569 509.61C174.899 518.71 176.489 530.2 177.909 542.55C178.349 546.3 178.769 550.13 179.169 554L50.729 554H50.7289Z" fill="#2F2E41"/>
<path d="M20.8034 196.193C23.4399 188.922 29.5995 183.495 37.1449 181.796C42.6484 180.231 48.3763 179.605 54.0879 179.944C70.808 180.603 66.5921 143.144 83.1483 145.57C83.1483 145.57 98.7313 140.008 110.924 150.199C122 159.457 129.636 184.635 132.479 183.203C133.083 182.904 134.534 182.936 136.564 183.205C160.287 186.354 177.359 207.635 175.949 231.525L174.744 251.947C174.744 251.947 183.262 264.77 170.901 287.407L155.329 357C155.329 357 194.29 434.168 176.329 450C158.368 465.832 87.945 441.146 87.945 441.146C87.945 441.146 48.4534 428.938 40.1245 423.647C22.5313 412.47 45.017 386.985 58.9194 388.186C59.6672 385.222 58.6826 382.089 56.3734 380.085C52.531 377.632 56.8362 372.077 57.1603 371.567C56.7898 371.938 53.8734 374.993 51.6514 368.558C49.4295 362.124 56.2807 354.022 56.2807 354.022L36.9304 312.359L21.7002 279.445L19.8483 275.649L23.0252 255.169L22.7279 254.554C15.9585 240.441 14.4603 224.372 18.5041 209.251C19.9711 203.69 21.0269 198.623 20.8034 196.193L20.8034 196.193Z" fill="#E6E6E6"/>
<path d="M179.169 554H172.489C174.339 550.03 176.169 546.18 177.909 542.55C178.349 546.3 178.769 550.13 179.169 554Z" fill="#2F2E41"/>
<path d="M310.29 321.054C309.698 321.825 309.177 322.648 308.733 323.512L219.403 274.455L152.53 202.527C143.352 192.655 127.908 192.092 118.035 201.271C109.126 209.554 107.676 223.133 114.635 233.11L114.635 233.11C126.089 249.531 140.033 264.066 155.965 276.19L208.562 316.214L314.772 344.838C322.438 349.43 332.375 346.938 336.968 339.272C341.561 331.606 339.069 321.669 331.403 317.076C324.373 312.865 315.305 314.573 310.29 321.054H310.29Z" fill="#FFB8B8"/>
<path d="M189.374 301.609L215.892 270.676L217.37 268.947L163.052 195.336C160.704 193.508 158.147 191.966 155.434 190.744L155.427 190.737C136.129 181.965 113.373 190.499 104.602 209.798C97.2381 225.998 101.976 245.136 116.047 256.03L131.9 265.971L189.137 301.881L189.374 301.609Z" fill="#E6E6E6"/>
<path d="M141.78 111.909C128.24 136.668 97.1934 145.762 72.4352 132.223C47.677 118.683 38.5824 87.6367 52.122 62.8784C65.6615 38.1202 96.708 29.0256 121.466 42.5652C131.866 48.2525 139.965 57.3788 144.376 68.3809C144.61 68.9656 144.82 69.5504 145.031 70.1585C149.971 83.8996 148.787 99.0988 141.78 111.91V111.909Z" fill="#FFB6B6"/>
<path d="M149.124 70.1585C146.925 64.0069 147.884 67.2114 145.662 61.0832C147.112 66.5097 144.82 69.5504 145.031 70.1585H84.1934V34.793C102.017 27.7292 119.442 21.718 129.967 34.793C149.499 34.7938 165.332 50.627 165.333 70.1585L149.124 70.1585V70.1585Z" fill="#2F2E41"/>
<path d="M127.558 168.466C127.512 167.811 127.442 167.133 127.348 166.478C126.53 161.674 125.205 156.969 123.395 152.444C121.641 147.509 119.863 142.55 118.086 137.615C120.375 146.574 119.677 156.035 116.097 164.56C105.829 156.561 112.308 138.27 98.8823 138.27C66.6042 138.27 33.3905 112.097 33.3905 79.7951C33.3905 47.5169 47.2373 23.3786 79.5154 23.3786C111.817 23.3786 138.014 38.1609 138.645 70.4391C98.8824 79.7952 135.067 165.192 127.558 168.466V168.466Z" fill="#2F2E41"/>
<path d="M37.4239 74.8478C58.0925 74.8478 74.8478 58.0925 74.8478 37.4239C74.8478 16.7552 58.0925 0 37.4239 0C16.7552 0 0 16.7552 0 37.4239C0 58.0925 16.7552 74.8478 37.4239 74.8478Z" fill="#2F2E41"/>
<path d="M234.723 184.923C237.218 184.923 239.241 182.855 239.241 180.304C239.241 177.753 237.218 175.685 234.723 175.685C232.227 175.685 230.205 177.753 230.205 180.304C230.205 182.855 232.227 184.923 234.723 184.923Z" fill="#3F3D56"/>
<path d="M250.331 184.923C252.826 184.923 254.849 182.855 254.849 180.304C254.849 177.753 252.826 175.685 250.331 175.685C247.835 175.685 245.812 177.753 245.812 180.304C245.812 182.855 247.835 184.923 250.331 184.923Z" fill="#3F3D56"/>
<path d="M265.938 184.923C268.434 184.923 270.457 182.855 270.457 180.304C270.457 177.753 268.434 175.685 265.938 175.685C263.443 175.685 261.42 177.753 261.42 180.304C261.42 182.855 263.443 184.923 265.938 184.923Z" fill="#3F3D56"/>
<path d="M283.736 183.954C283.597 183.954 283.458 183.901 283.354 183.794L280.305 180.677C280.102 180.47 280.102 180.138 280.305 179.93L283.354 176.814C283.561 176.603 283.899 176.6 284.109 176.806C284.32 177.012 284.324 177.35 284.117 177.561L281.434 180.304L284.117 183.046C284.324 183.257 284.32 183.596 284.109 183.802C284.005 183.904 283.87 183.954 283.736 183.954V183.954Z" fill="#3F3D56"/>
<path d="M288.858 183.954C288.723 183.954 288.589 183.904 288.485 183.802C288.274 183.596 288.27 183.258 288.476 183.047L291.159 180.304L288.476 177.561C288.27 177.35 288.274 177.012 288.485 176.806C288.695 176.599 289.034 176.603 289.24 176.814L292.288 179.93C292.492 180.138 292.492 180.47 292.288 180.677L289.24 183.794C289.136 183.901 288.997 183.954 288.858 183.954L288.858 183.954Z" fill="#3F3D56"/>
<path d="M458.311 176.22H452.642C451.996 176.22 451.472 176.743 451.472 177.39V183.064C451.472 183.71 451.996 184.234 452.642 184.234H458.311C458.957 184.234 459.486 183.71 459.486 183.064V177.39C459.486 176.743 458.957 176.22 458.311 176.22Z" fill="#3F3D56"/>
<path d="M444.42 176.22H438.752C438.105 176.22 437.582 176.743 437.582 177.39V183.064C437.582 183.71 438.105 184.234 438.752 184.234H444.42C445.067 184.234 445.596 183.71 445.596 183.064V177.39C445.596 176.743 445.067 176.22 444.42 176.22Z" fill="#3F3D56"/>
<path d="M471.4 176.487H465.732C465.085 176.487 464.562 177.01 464.562 177.657V183.331C464.562 183.977 465.085 184.501 465.732 184.501H471.4C472.047 184.501 472.576 183.977 472.576 183.331V177.657C472.576 177.01 472.047 176.487 471.4 176.487Z" fill="#3F3D56"/>
<path d="M377.221 178.645H327.295C326.504 178.645 325.868 179.287 325.868 180.072C325.868 180.857 326.504 181.498 327.295 181.498H377.221C378.007 181.498 378.648 180.857 378.648 180.072C378.648 179.287 378.007 178.645 377.221 178.645Z" fill="#3F3D56"/>
</g>
<defs>
<linearGradient id="paint0_linear_6_108" x1="834" y1="-7.4027e-05" x2="9.00002" y2="554" gradientUnits="userSpaceOnUse">
<stop stop-color="#00FF38"/>
<stop offset="1" stop-color="#00F0FF"/>
</linearGradient>
<clipPath id="clip0_6_108">
<rect width="833.723" height="554" fill="white"/>
</clipPath>
</defs>
</svg>
